<?xml version="1.0" standalone="no"?>
<!DOCTYPE svg PUBLIC "-//W3C//DTD SVG 20010904//EN"
 "http://www.w3.org/TR/2001/REC-SVG-20010904/DTD/svg10.dtd">
<svg version="1.0" xmlns="http://www.w3.org/2000/svg"
 width="512.000000pt" height="512.000000pt" viewBox="0 0 512.000000 512.000000"
 preserveAspectRatio="xMidYMid meet">
<metadata>
Created by potrace 1.15, written by Peter Selinger 2001-2017
</metadata>
<g transform="translate(0.000000,512.000000) scale(0.100000,-0.100000)"
fill="#000000" stroke="none">
<path d="M0 2560 l0 -2560 2560 0 2560 0 0 2560 0 2560 -2560 0 -2560 0 0
-2560z m4165 -374 c-21 -70 -66 -155 -106 -199 -34 -39 -35 -43 -27 -82 15
-63 4 -221 -21 -290 -55 -154 -188 -284 -343 -334 -21 -7 -38 -18 -38 -26 0
-7 -18 -49 -41 -94 -53 -107 -139 -194 -240 -244 -99 -49 -161 -60 -288 -55
l-106 5 -50 -38 c-64 -48 -127 -76 -213 -94 -173 -37 -351 -1 -479 96 l-53 40
-73 -10 c-231 -32 -449 85 -556 299 -22 45 -41 88 -41 95 0 7 -26 22 -57 34
-165 63 -294 207 -338 378 -15 58 -18 193 -6 248 6 25 1 37 -29 72 -39 45 -84
130 -105 199 l-13 44 1618 0 1618 0 -13 -44z"/>
</g>
</svg>
